<svg xmlns="http://www.w3.org/2000/svg" width="20" height="20" viewBox="-34 0 466 466"><path d="M221.563 233.434h-22.258c-43.53.047-78.8 35.324-78.86 78.855v49.383c0 5.523 4.48 10 10 10h159.973a10 10 0 0 0 10-10V312.3c-.05-43.53-35.324-78.8-78.855-78.855zm58.855 118.238H140.45V312.3c.035-32.488 26.363-58.82 58.855-58.855h22.258c32.492.035 58.82 26.367 58.855 58.855zM213.3 212.938c31.258 0 56.602-25.34 56.602-56.598S244.56 99.738 213.3 99.738s-56.6 25.34-56.6 56.602c.04 31.242 25.355 56.563 56.602 56.598zm0-93.2c20.215 0 36.602 16.387 36.602 36.602s-16.387 36.598-36.602 36.598-36.6-16.388-36.6-36.598c.023-20.207 16.398-36.578 36.602-36.602zM348.656 0H72.2c-27.602.03-49.97 22.398-50 50v19.55H10a10 10 0 1 0 0 20h12.2v293.848H10c-5.523 0-10 4.48-10 10a10 10 0 0 0 10 10h12.2V416c.03 27.602 22.398 49.97 50 50h276.445c27.602-.03 49.97-22.398 50-50V50c-.03-27.602-22.398-49.97-50-50zm30 416c-.02 16.563-13.44 29.98-30 30H72.2c-16.562-.02-29.984-13.437-30-30v-12.602h16.477a10 10 0 0 0 10-10c0-5.52-4.477-10-10-10H42.2V89.55h16.477a10 10 0 1 0 0-20H42.2V50c.016-16.562 13.438-29.98 30-30h276.445c16.563.02 29.98 13.438 30 30zm0 0"/></svg>